# AST/ASF file generated using VICON BodyLanguage
# -----------------------------------------------
:version 1.10
:name VICON
:units
  mass 1.0
  length 0.45
  angle deg
:documentation
   .ast/.asf automatically generated from VICON data using
   VICON BodyBuilder and BodyLanguage model FoxedUp or BRILLIANT.MOD
:root
   order TX TY TZ RX RY RZ
   axis XYZ
   position 0 0 0  
   orientation 0 0 0 
:bonedata
  begin
     id 1 
     name lhipjoint
     direction 0.714689 -0.624256 0.315473 
     length 2.45343 
     axis 0 0 0  XYZ
  end
  begin
     id 2 
     name lfemur
     direction 0.34202 -0.939693 0  
     length 6.59069  
     axis 0 0 20  XYZ
    dof rx ry rz
    limits (-160.0 20.0)
           (-70.0 70.0)
           (-60.0 70.0)
  end
  begin
     id 3 
     name ltibia
     direction 0.34202 -0.939693 0   
     length 6.73476   
     axis 0 0 20   XYZ
    dof rx
    limits (-10.0 170.0)
  end
  begin
     id 4 
     name lfoot
     direction 0.0718085 -0.197292 0.977711   
     length 1.52607   
     axis -90 7.62852e-016 20   XYZ
    dof rx rz
    limits (-45.0 90.0)
           (-70.0 20.0)
  end
  begin
     id 5 
     name ltoes
     direction 1.53553e-011 -4.22024e-011 1   
     length 0.777832   
     axis -90 7.62852e-016 20   XYZ
    dof rx
    limits (-90.0 20.0)
  end
  begin
     id 6 
     name rhipjoint
     direction -0.727419 -0.612432 0.309497   
     length 2.50079  
     axis 0 0 0  XYZ 
  end
  begin
     id 7 
     name rfemur
     direction -0.34202 -0.939693 0   
     length 6.51665   
     axis 0 0 -20   XYZ
    dof rx ry rz
    limits (-160.0 20.0)
           (-70.0 70.0)
           (-70.0 60.0)
  end
  begin
     id 8 
     name rtibia
     direction -0.34202 -0.939693 0   
     length 6.48919   
     axis 0 0 -20   XYZ
    dof rx
    limits (-10.0 170.0)
 end
 begin
     id 9 
     name rfoot
     direction -0.112205 -0.308282 0.944655   
     length 1.68717  
     axis -90 -7.62852e-016 -20   XYZ
    dof rx rz
    limits (-45.0 90.0)
           (-20.0 70.0)
  end
  begin
     id 10 
     name rtoes
     direction -1.53583e-011 -4.21993e-011 1   
     length 0.846859   
     axis -90 -7.62852e-016 -20   XYZ
    dof rx
    limits (-90.0 20.0)
  end
  begin
     id 11 
     name lowerback
     direction -0.00119603 0.996364 -0.0851956   
     length 1.67242   
     axis 0 0 0   XYZ
    dof rx ry rz
    limits (-20.0 45.0)
           (-30.0 30.0)
           (-30.0 30.0)
  end
  begin
     id 12 
     name upperback
     direction -0.00531001 0.998318 0.0577248   
     length 1.64819   
     axis 0 0 0   XYZ
    dof rx ry rz
    limits (-20.0 45.0)
           (-30.0 30.0)
           (-30.0 30.0)
  end
  begin
     id 13 
     name thorax
     direction -0.00653676 0.995132 0.0983291   
     length 1.67429   
     axis 0 0 0   XYZ
    dof rx ry rz
    limits (-20.0 45.0)
           (-30.0 30.0)
           (-30.0 30.0)
  end
  begin
     id 14 
     name lowerneck
     direction 0.0141424 0.999886 0.00525412   
     length 1.59623   
     axis 0 0 0   XYZ
    dof rx ry rz
    limits (-20.0 45.0)
           (-30.0 30.0)
           (-30.0 30.0)
  end
  begin
     id 15 
     name upperneck
     direction -0.0640064 0.987178 -0.146232   
     length 1.59576   
     axis 0 0 0   XYZ
    dof rx ry rz
    limits (-20.0 45.0)
           (-30.0 30.0)
           (-30.0 30.0)
  end
  begin
     id 16
     name head
     direction -0.0222942 0.998496 -0.0500859  
     length 1.60959  
     axis 0 0 0   XYZ
    dof rx ry rz
    limits (-20.0 45.0)
           (-30.0 30.0)
           (-30.0 30.0)
  end
  begin
     id 17 
     name lclavicle
     direction 0.908549 0.392612 0.142806  
     length 2.80649  
     axis 0 0 0   XYZ
    dof ry rz
    limits (-20.0 10.0)
           (0.0 20.0)
  end
  begin
     id 18 
     name lhumerus
     direction 1 -4.48968e-011 1.08832e-028   
     length 4.2884   
     axis -180 -30 -90   XYZ
    dof rx ry rz
    limits (-60.0 90.0)
           (-90.0 90.0)
           (-90.0 90.0)
  end
  begin
     id 19
     name lradius
     direction 1 -4.48952e-011 -3.02642e-028   
     length 3.06552   
     axis -180 -30 -90   XYZ
    dof rx
    limits (-10.0 170.0)
  end
  begin
     id 20
     name lwrist
     direction 1 -4.49014e-011 1.58672e-027   
     length 1.53276   
     axis -1.65735e-015 90 90   XYZ
    dof ry
    limits (-180.0 0.0)
 end
  begin
     id 21 
     name lhand
     direction 1 -4.48928e-011 3.17344e-027   
     length 0.753045   
     axis -2.02492e-015 90 90   XYZ
    dof rx rz
    limits (-90.0 90.0)
           (-45.0 45.0)
  end
  begin
     id 22 
     name lfingers
     direction 1 -4.48958e-011 6.34687e-027   
     length 0.607124   
     axis -4.04985e-015 90 90   XYZ
    dof rx
    limits (0.0 90.0)
  end
  begin
     id 23
     name lthumb
     direction 0.707107 -6.34905e-011 0.707107   
     length 0.871712   
     axis -90 45 2.85299e-015   XYZ
    dof rx rz
    limits (-45.0 45.0)
           (-45.0 45.0)
  end
  begin
     id 24 
     name rclavicle
     direction -0.885098 0.45949 0.0739604   
     length 2.9478  
     axis 0 0 0   XYZ 
    dof ry rz
    limits (-10.0 20.0)
           (-20.0 0.0)
  end
  begin
     id 25 
     name rhumerus
     direction -1 -4.4898e-011 -2.61739e-027  
     length 4.52172   
     axis -180 30 90   XYZ
    dof rx ry rz
    limits (-90.0 60.0)
           (-90.0 90.0)
           (-90.0 90.0)
  end
  begin
     id 26 
     name rradius
     direction -1 -4.48945e-011 9.02552e-028   
     length 2.8914   
     axis -180 30 90   XYZ
    dof rx
    limits (-10.0 170.0)
  end
  begin
     id 27 
     name rwrist
     direction -1 -4.49018e-011 1.58672e-027   
     length 1.4457   
     axis -1.65735e-015 -90 -90   XYZ
    dof ry
    limits (-180.0 0.0)
  end
  begin
     id 28
     name rhand
     direction -1 -4.48825e-011 3.17344e-027   
     length 0.680541   
     axis -2.02492e-015 -90 -90   XYZ
    dof rx rz
    limits (-90.0 90.0)
           (-45.0 45.0)
  end
  begin
     id 29
     name rfingers
     direction -1 -4.49067e-011 6.34687e-027   
     length 0.54867   
     axis -4.04985e-015 -90 -90   XYZ
    dof rx
    limits (0.0 90.0)
  end
  begin
     id 30
     name rthumb
     direction -0.707107 -6.34833e-011 0.707107   
     length 0.787783   
     axis -90 -45 -2.85299e-015   XYZ
    dof rx rz
    limits (-45.0 45.0)
           (-45.0 45.0)
  end
:hierarchy
  begin
    root lhipjoint rhipjoint lowerback
    lhipjoint lfemur
    lfemur ltibia
    ltibia lfoot
    lfoot ltoes
    rhipjoint rfemur
    rfemur rtibia
    rtibia rfoot
    rfoot rtoes
    lowerback upperback
    upperback thorax
    thorax lowerneck lclavicle rclavicle
    lowerneck upperneck
    upperneck head
    lclavicle lhumerus
    lhumerus lradius
    lradius lwrist
    lwrist lhand lthumb
    lhand lfingers
    rclavicle rhumerus
    rhumerus rradius
    rradius rwrist
    rwrist rhand rthumb
    rhand rfingers
  end

#!OML:ASF E:\emotionWalksFemale\Project 1\Capture day 1\Session 1\Female1.ASF
:FULLY-SPECIFIED
:DEGREES
405
root 24.7791 15.7312 12.286 179.555 -12.5933 181.352
lowerback 7.58103 3.37892 1.6355
upperback -3.52746 4.66726 -0.136085
thorax -7.82293 2.18137 -1.71514
lowerneck -9.63994 5.7205 1.6542
upperneck 13.1388 7.71176 -2.46682
head 5.71426 3.58893 -0.445913
rclavicle -8.50426e-015 -1.59028e-015
rhumerus -37.3688 11.7153 -88.1081
rradius 39.212
rwrist 13.6948
rhand -1.70456 -50.6339
rfingers 7.12502
rthumb 23.9567 -79.1593
lclavicle -8.50426e-015 -1.59028e-015
lhumerus -48.3003 12.3334 67.8378
lradius 39.4314
lwrist -6.99922
lhand -7.93147 -30.6646
lfingers 7.12502
lthumb 17.9748 -1.47517
rfemur -4.02029 -9.83234 18.207
rtibia 60.8574
rfoot 13.1635 -9.73245
rtoes -3.95671
lfemur -8.40055 -13.4404 -30.7413
ltibia 15.751
lfoot -13.5268 25.6179
ltoes 17.2408
406
root 24.744 15.7291 12.1621 179.513 -13.3888 181.248
lowerback 7.54063 3.19401 1.56356
upperback -3.56426 4.41094 -0.125904
thorax -7.85411 2.05874 -1.62832
lowerneck -9.28158 5.69169 1.78456
upperneck 13.0552 7.6707 -2.6255
head 5.63794 3.56651 -0.531138
rclavicle -3.63652e-014 3.47873e-015
rhumerus -37.7447 11.309 -87.9948
rradius 39.2599
rwrist 13.9195
rhand -1.43621 -50.8182
rfingers 7.12502
rthumb 24.214 -79.3094
lclavicle -3.63652e-014 3.47873e-015
lhumerus -47.9212 12.1409 68.3562
lradius 39.5876
lwrist -7.07799
lhand -7.94869 -30.8782
lfingers 7.12502
lthumb 17.9582 -1.6873
rfemur -5.21933 -10.137 18.0865
rtibia 61.9947
rfoot 11.8941 -9.08051
rtoes -5.25609
lfemur -7.71194 -13.7294 -31.0889
ltibia 15.7184
lfoot -13.7133 25.2501
ltoes 16.42
407
root 24.71 15.7298 12.0424 179.422 -13.8757 181.363
lowerback 7.56855 3.13817 1.75466
upperback -3.61357 4.3585 -0.104305
thorax -7.91278 2.02162 -1.70827
lowerneck -9.12746 5.65495 1.80306
upperneck 13.1531 7.60074 -2.51135
head 5.63692 3.54006 -0.507679
rclavicle 2.94077e-014 4.57205e-015
rhumerus -38.0541 10.9904 -87.9341
rradius 39.1182
rwrist 13.7433
rhand -1.93956 -50.5699
rfingers 7.12502
rthumb 23.7314 -79.1247
lclavicle 2.94077e-014 4.57205e-015
lhumerus -47.3636 12.0031 68.808
lradius 39.4281
lwrist -7.44504
lhand -7.9685 -31.2679
lfingers 7.12502
lthumb 17.9391 -2.07527
rfemur -6.53279 -9.95627 18.3036
rtibia 62.9429
rfoot 9.61026 -8.90323
rtoes -9.21083
lfemur -7.12042 -13.9343 -31.183
ltibia 15.8111
lfoot -13.9507 24.9968
ltoes 16.232
408
root 24.6784 15.7275 11.9242 179.261 -14.4522 181.464
lowerback 7.63053 3.01829 1.82902
upperback -3.57079 4.21643 0.0157605
thorax -7.91193 1.95222 -1.60641
lowerneck -9.24907 5.60491 1.70472
upperneck 13.3647 7.54988 -2.52955
head 5.71975 3.50211 -0.495385
rclavicle 4.18069e-015 8.84592e-015
rhumerus -38.2588 10.8565 -87.7096
rradius 39.1027
rwrist 13.5341
rhand -2.28221 -50.9222
rfingers 7.12502
rthumb 23.4027 -79.5192
lclavicle 4.18069e-015 8.84592e-015
lhumerus -46.614 12.0327 69.3679
lradius 39.081
lwrist -7.84651
lhand -7.92493 -30.9257
lfingers 7.12502
lthumb 17.9811 -1.73688
rfemur -7.77519 -9.72402 18.5269
rtibia 63.7421
rfoot 7.74372 -9.32341
rtoes -9.74748
lfemur -6.5511 -14.1759 -31.3026
ltibia 16.0818
lfoot -14.4251 24.742
ltoes 16.137
409
root 24.6454 15.7141 11.806 179.141 -15.0031 181.335
lowerback 7.60452 2.90213 1.61413
upperback -3.49753 4.0455 0.133923
thorax -7.84741 1.88544 -1.33523
lowerneck -9.16648 5.56766 1.5859
upperneck 13.4396 7.53149 -2.65559
head 5.7293 3.47424 -0.518807
rclavicle -2.27049e-015 -2.13694e-015
rhumerus -38.5482 10.6794 -87.405
rradius 39.1943
rwrist 13.2271
rhand -2.67192 -51.2583
rfingers 7.12502
rthumb 23.0288 -79.9025
lclavicle -2.27049e-015 -2.13694e-015
lhumerus -45.9953 11.6801 70.4341
lradius 39.1166
lwrist -8.80763
lhand -9.79727 -28.6835
lfingers 7.12502
lthumb 16.1789 0.661306
rfemur -8.96366 -9.53454 18.4269
rtibia 64.4416
rfoot 5.79196 -9.78885
rtoes -11.2064
lfemur -6.01693 -14.432 -31.683
ltibia 16.4423
lfoot -15.0115 24.7113
ltoes 15.5934
410
root 24.6113 15.694 11.6901 179.058 -15.5427 181.2
lowerback 7.54807 2.81527 1.51249
upperback -3.41912 3.91822 0.142706
thorax -7.74141 1.83184 -1.24598
lowerneck -9.11502 5.49627 1.53833
upperneck 13.4751 7.43568 -2.61988
head 5.72634 3.42717 -0.508959
rclavicle -2.0655e-014 -8.19987e-015
rhumerus -38.7741 10.2816 -87.1623
rradius 39.1059
rwrist 13.0087
rhand -3.10524 -50.8886
rfingers 7.12502
rthumb 22.613 -79.5841
lclavicle -2.0655e-014 -8.19987e-015
lhumerus -45.2766 11.7142 70.966
lradius 38.9216
lwrist -9.40089
lhand -9.97609 -28.6202
lfingers 7.12502
lthumb 16.0067 0.738526
rfemur -10.0668 -9.33078 18.342
rtibia 64.9995
rfoot 3.71325 -10.3013
rtoes -13.6777
lfemur -5.5269 -14.6812 -32.0691
ltibia 16.7881
lfoot -15.3082 24.765
ltoes 14.1877
